<svg width="21" height="18" viewBox="0 0 21 18" fill="none" xmlns="http://www.w3.org/2000/svg">
<path d="M13.4999 9C13.4999 8.17157 14.1715 7.5 14.9999 7.5C15.8284 7.5 16.4999 8.17157 16.4999 9C16.4999 9.82843 15.8284 10.5 14.9999 10.5C14.1715 10.5 13.4999 9.82843 13.4999 9Z" fill="black" fill-opacity="0.31"/>
<path fill-rule="evenodd" clip-rule="evenodd" d="M18.4413 3.67402C17.7835 2.12836 16.3301 1.01723 14.6006 0.835232L13.9487 0.766636C10.6564 0.420183 7.33569 0.443029 4.04844 0.83475L3.6165 0.886221C1.94771 1.08508 0.625458 2.38889 0.403182 4.05473C-0.0347845 7.33704 -0.0347845 10.663 0.403182 13.9453C0.625458 15.6111 1.94771 16.9149 3.61651 17.1138L4.04845 17.1653C7.33569 17.557 10.6564 17.5798 13.9487 17.2334L14.6006 17.1648C16.3301 16.9828 17.7835 15.8717 18.4413 14.326C19.4805 14.0166 20.2737 13.1156 20.4039 12.0024C20.6372 10.0076 20.6372 7.99242 20.4039 5.99764C20.2737 4.88442 19.4805 3.98344 18.4413 3.67402ZM13.7918 2.2584C10.6107 1.92365 7.40212 1.94573 4.22593 2.32421L3.79399 2.37568C2.80518 2.49351 2.02171 3.26606 1.89 4.25312C1.46961 7.40376 1.46961 10.5963 1.89 13.7469C2.02171 14.734 2.80518 15.5065 3.794 15.6243L4.22594 15.6758C7.40212 16.0543 10.6107 16.0764 13.7918 15.7416L14.4436 15.673C15.2942 15.5835 16.0468 15.1643 16.5683 14.542C15.0601 14.6299 13.5319 14.5906 12.0417 14.4241C10.7723 14.2822 9.74574 13.2826 9.596 12.0024C9.36269 10.0076 9.36269 7.99242 9.596 5.99764C9.74574 4.71738 10.7723 3.71784 12.0417 3.57597C13.5319 3.40942 15.0601 3.37012 16.5683 3.45806C16.0467 2.83574 15.2942 2.4165 14.4436 2.327L13.7918 2.2584ZM17.2773 5.01471C17.2779 5.01855 17.2785 5.02239 17.2791 5.02623L17.2852 5.06511L17.4838 5.03426C17.5866 5.04444 17.6892 5.05524 17.7916 5.06669C18.379 5.13234 18.8468 5.59648 18.9141 6.17189C19.1338 8.0509 19.1338 9.94912 18.9141 11.8281C18.8468 12.4035 18.379 12.8677 17.7916 12.9333C17.6892 12.9448 17.5866 12.9556 17.4838 12.9658L17.2852 12.9349L17.2791 12.9738C17.2785 12.9776 17.2779 12.9815 17.2773 12.9853C15.5987 13.1372 13.8771 13.1199 12.2083 12.9333C11.6209 12.8677 11.1531 12.4035 11.0858 11.8281C10.8661 9.94912 10.8661 8.0509 11.0858 6.17189C11.1531 5.59648 11.6209 5.13234 12.2083 5.06669C13.8771 4.88017 15.5987 4.86285 17.2773 5.01471Z" fill="black" fill-opacity="0.31"/>
</svg>
