<svg width="421" height="106" viewBox="0 0 421 106" fill="none" xmlns="http://www.w3.org/2000/svg">
<path fill-rule="evenodd" clip-rule="evenodd" d="M13.7628 0.283686C14.0791 0.661934 14.0791 1.2752 13.7628 1.65344L9.12046 7.20655C8.80425 7.5848 8.29157 7.5848 7.97535 7.20655L6.23716 5.12736C5.92095 4.74911 5.92095 4.13585 6.23716 3.7576C6.55337 3.37936 7.06606 3.37936 7.38227 3.7576L8.54791 5.15191L12.6177 0.283686C12.9339 -0.0945621 13.4466 -0.094562 13.7628 0.283686Z" fill="white"/>
<rect x="0.5" y="7.01562" width="420" height="98" rx="5.5" stroke="#B8B8B8" stroke-dasharray="6 6"/>
<path d="M151.876 72.9316C151.876 71.8436 152.121 70.8676 152.612 70.0036C153.102 69.129 153.769 68.4463 154.612 67.9556C155.465 67.465 156.409 67.2196 157.444 67.2196C158.66 67.2196 159.721 67.513 160.628 68.0996C161.534 68.6863 162.196 69.5183 162.612 70.5956H160.868C160.558 69.9236 160.11 69.4063 159.524 69.0436C158.948 68.681 158.254 68.4996 157.444 68.4996C156.665 68.4996 155.966 68.681 155.348 69.0436C154.729 69.4063 154.244 69.9236 153.892 70.5956C153.54 71.257 153.364 72.0356 153.364 72.9316C153.364 73.817 153.54 74.5956 153.892 75.2676C154.244 75.929 154.729 76.441 155.348 76.8036C155.966 77.1663 156.665 77.3476 157.444 77.3476C158.254 77.3476 158.948 77.1716 159.524 76.8196C160.11 76.457 160.558 75.9396 160.868 75.2676H162.612C162.196 76.3343 161.534 77.161 160.628 77.7476C159.721 78.3236 158.66 78.6116 157.444 78.6116C156.409 78.6116 155.465 78.3716 154.612 77.8916C153.769 77.401 153.102 76.7236 152.612 75.8596C152.121 74.9956 151.876 74.0196 151.876 72.9316ZM166.235 66.6756V78.5156H164.779V66.6756H166.235ZM169.468 68.3236C169.191 68.3236 168.956 68.2276 168.764 68.0356C168.572 67.8436 168.476 67.609 168.476 67.3316C168.476 67.0543 168.572 66.8196 168.764 66.6276C168.956 66.4356 169.191 66.3396 169.468 66.3396C169.735 66.3396 169.959 66.4356 170.14 66.6276C170.332 66.8196 170.428 67.0543 170.428 67.3316C170.428 67.609 170.332 67.8436 170.14 68.0356C169.959 68.2276 169.735 68.3236 169.468 68.3236ZM170.172 69.7476V78.5156H168.716V69.7476H170.172ZM172.11 74.1156C172.11 73.209 172.291 72.4196 172.654 71.7476C173.017 71.065 173.518 70.537 174.158 70.1636C174.809 69.7903 175.55 69.6036 176.382 69.6036C177.459 69.6036 178.345 69.865 179.038 70.3876C179.742 70.9103 180.206 71.6356 180.43 72.5636H178.862C178.713 72.0303 178.419 71.609 177.982 71.2996C177.555 70.9903 177.022 70.8356 176.382 70.8356C175.55 70.8356 174.878 71.1236 174.366 71.6996C173.854 72.265 173.598 73.0703 173.598 74.1156C173.598 75.1716 173.854 75.9876 174.366 76.5636C174.878 77.1396 175.55 77.4276 176.382 77.4276C177.022 77.4276 177.555 77.2783 177.982 76.9796C178.409 76.681 178.702 76.2543 178.862 75.6996H180.43C180.195 76.5956 179.726 77.3156 179.022 77.8596C178.318 78.393 177.438 78.6596 176.382 78.6596C175.55 78.6596 174.809 78.473 174.158 78.0996C173.518 77.7263 173.017 77.1983 172.654 76.5156C172.291 75.833 172.11 75.033 172.11 74.1156ZM187.269 78.5156L183.829 74.6436V78.5156H182.373V66.6756H183.829V73.6356L187.205 69.7476H189.237L185.109 74.1156L189.253 78.5156H187.269ZM196.649 70.9476V76.1156C196.649 76.5423 196.739 76.8463 196.921 77.0276C197.102 77.1983 197.417 77.2836 197.865 77.2836H198.937V78.5156H197.625C196.814 78.5156 196.206 78.329 195.801 77.9556C195.395 77.5823 195.193 76.969 195.193 76.1156V70.9476H194.057V69.7476H195.193V67.5396H196.649V69.7476H198.937V70.9476H196.649ZM204.525 78.6596C203.703 78.6596 202.957 78.473 202.285 78.0996C201.623 77.7263 201.101 77.1983 200.717 76.5156C200.343 75.8223 200.157 75.0223 200.157 74.1156C200.157 73.2196 200.349 72.4303 200.733 71.7476C201.127 71.0543 201.661 70.5263 202.333 70.1636C203.005 69.7903 203.757 69.6036 204.589 69.6036C205.421 69.6036 206.173 69.7903 206.845 70.1636C207.517 70.5263 208.045 71.049 208.429 71.7316C208.823 72.4143 209.021 73.209 209.021 74.1156C209.021 75.0223 208.818 75.8223 208.413 76.5156C208.018 77.1983 207.479 77.7263 206.797 78.0996C206.114 78.473 205.357 78.6596 204.525 78.6596ZM204.525 77.3796C205.047 77.3796 205.538 77.257 205.997 77.0116C206.455 76.7663 206.823 76.3983 207.101 75.9076C207.389 75.417 207.533 74.8196 207.533 74.1156C207.533 73.4116 207.394 72.8143 207.117 72.3236C206.839 71.833 206.477 71.4703 206.029 71.2356C205.581 70.9903 205.095 70.8676 204.573 70.8676C204.039 70.8676 203.549 70.9903 203.101 71.2356C202.663 71.4703 202.311 71.833 202.045 72.3236C201.778 72.8143 201.645 73.4116 201.645 74.1156C201.645 74.8303 201.773 75.433 202.029 75.9236C202.295 76.4143 202.647 76.7823 203.085 77.0276C203.522 77.2623 204.002 77.3796 204.525 77.3796ZM222.977 69.7476V78.5156H221.521V77.2196C221.243 77.6676 220.854 78.0196 220.353 78.2756C219.862 78.521 219.318 78.6436 218.721 78.6436C218.038 78.6436 217.425 78.505 216.881 78.2276C216.337 77.9396 215.905 77.513 215.585 76.9476C215.275 76.3823 215.121 75.6943 215.121 74.8836V69.7476H216.561V74.6916C216.561 75.5556 216.779 76.2223 217.217 76.6916C217.654 77.1503 218.251 77.3796 219.009 77.3796C219.787 77.3796 220.401 77.1396 220.849 76.6596C221.297 76.1796 221.521 75.481 221.521 74.5636V69.7476H222.977ZM226.891 71.3636C227.179 70.8623 227.606 70.4463 228.171 70.1156C228.747 69.7743 229.414 69.6036 230.171 69.6036C230.95 69.6036 231.654 69.7903 232.283 70.1636C232.923 70.537 233.424 71.065 233.787 71.7476C234.15 72.4196 234.331 73.2036 234.331 74.0996C234.331 74.985 234.15 75.7743 233.787 76.4676C233.424 77.161 232.923 77.6996 232.283 78.0836C231.654 78.4676 230.95 78.6596 230.171 78.6596C229.424 78.6596 228.763 78.4943 228.187 78.1636C227.622 77.8223 227.19 77.401 226.891 76.8996V82.6756H225.435V69.7476H226.891V71.3636ZM232.843 74.0996C232.843 73.4383 232.71 72.8623 232.443 72.3716C232.176 71.881 231.814 71.5076 231.355 71.2516C230.907 70.9956 230.411 70.8676 229.867 70.8676C229.334 70.8676 228.838 71.001 228.379 71.2676C227.931 71.5236 227.568 71.9023 227.291 72.4036C227.024 72.8943 226.891 73.465 226.891 74.1156C226.891 74.777 227.024 75.3583 227.291 75.8596C227.568 76.3503 227.931 76.729 228.379 76.9956C228.838 77.2516 229.334 77.3796 229.867 77.3796C230.411 77.3796 230.907 77.2516 231.355 76.9956C231.814 76.729 232.176 76.3503 232.443 75.8596C232.71 75.3583 232.843 74.7716 232.843 74.0996ZM237.704 66.6756V78.5156H236.248V66.6756H237.704ZM244.009 78.6596C243.188 78.6596 242.441 78.473 241.769 78.0996C241.108 77.7263 240.585 77.1983 240.201 76.5156C239.828 75.8223 239.641 75.0223 239.641 74.1156C239.641 73.2196 239.833 72.4303 240.217 71.7476C240.612 71.0543 241.145 70.5263 241.817 70.1636C242.489 69.7903 243.241 69.6036 244.073 69.6036C244.905 69.6036 245.657 69.7903 246.329 70.1636C247.001 70.5263 247.529 71.049 247.913 71.7316C248.308 72.4143 248.505 73.209 248.505 74.1156C248.505 75.0223 248.302 75.8223 247.897 76.5156C247.502 77.1983 246.964 77.7263 246.281 78.0996C245.598 78.473 244.841 78.6596 244.009 78.6596ZM244.009 77.3796C244.532 77.3796 245.022 77.257 245.481 77.0116C245.94 76.7663 246.308 76.3983 246.585 75.9076C246.873 75.417 247.017 74.8196 247.017 74.1156C247.017 73.4116 246.878 72.8143 246.601 72.3236C246.324 71.833 245.961 71.4703 245.513 71.2356C245.065 70.9903 244.58 70.8676 244.057 70.8676C243.524 70.8676 243.033 70.9903 242.585 71.2356C242.148 71.4703 241.796 71.833 241.529 72.3236C241.262 72.8143 241.129 73.4116 241.129 74.1156C241.129 74.8303 241.257 75.433 241.513 75.9236C241.78 76.4143 242.132 76.7823 242.569 77.0276C243.006 77.2623 243.486 77.3796 244.009 77.3796ZM249.876 74.0996C249.876 73.2036 250.057 72.4196 250.42 71.7476C250.782 71.065 251.278 70.537 251.908 70.1636C252.548 69.7903 253.257 69.6036 254.036 69.6036C254.804 69.6036 255.47 69.769 256.036 70.0996C256.601 70.4303 257.022 70.8463 257.3 71.3476V69.7476H258.772V78.5156H257.3V76.8836C257.012 77.3956 256.58 77.8223 256.004 78.1636C255.438 78.4943 254.777 78.6596 254.02 78.6596C253.241 78.6596 252.537 78.4676 251.908 78.0836C251.278 77.6996 250.782 77.161 250.42 76.4676C250.057 75.7743 249.876 74.985 249.876 74.0996ZM257.3 74.1156C257.3 73.4543 257.166 72.8783 256.9 72.3876C256.633 71.897 256.27 71.5236 255.812 71.2676C255.364 71.001 254.868 70.8676 254.324 70.8676C253.78 70.8676 253.284 70.9956 252.836 71.2516C252.388 71.5076 252.03 71.881 251.764 72.3716C251.497 72.8623 251.364 73.4383 251.364 74.0996C251.364 74.7716 251.497 75.3583 251.764 75.8596C252.03 76.3503 252.388 76.729 252.836 76.9956C253.284 77.2516 253.78 77.3796 254.324 77.3796C254.868 77.3796 255.364 77.2516 255.812 76.9956C256.27 76.729 256.633 76.3503 256.9 75.8596C257.166 75.3583 257.3 74.777 257.3 74.1156ZM260.688 74.0996C260.688 73.2036 260.869 72.4196 261.232 71.7476C261.595 71.065 262.091 70.537 262.72 70.1636C263.36 69.7903 264.075 69.6036 264.864 69.6036C265.547 69.6036 266.181 69.7636 266.768 70.0836C267.355 70.393 267.803 70.8036 268.112 71.3156V66.6756H269.584V78.5156H268.112V76.8676C267.824 77.3903 267.397 77.8223 266.832 78.1636C266.267 78.4943 265.605 78.6596 264.848 78.6596C264.069 78.6596 263.36 78.4676 262.72 78.0836C262.091 77.6996 261.595 77.161 261.232 76.4676C260.869 75.7743 260.688 74.985 260.688 74.0996ZM268.112 74.1156C268.112 73.4543 267.979 72.8783 267.712 72.3876C267.445 71.897 267.083 71.5236 266.624 71.2676C266.176 71.001 265.68 70.8676 265.136 70.8676C264.592 70.8676 264.096 70.9956 263.648 71.2516C263.2 71.5076 262.843 71.881 262.576 72.3716C262.309 72.8623 262.176 73.4383 262.176 74.0996C262.176 74.7716 262.309 75.3583 262.576 75.8596C262.843 76.3503 263.2 76.729 263.648 76.9956C264.096 77.2516 264.592 77.3796 265.136 77.3796C265.68 77.3796 266.176 77.2516 266.624 76.9956C267.083 76.729 267.445 76.3503 267.712 75.8596C267.979 75.3583 268.112 74.777 268.112 74.1156Z" fill="#D1D1D1"/>
<path d="M179.737 86.0356V91.5156H178.827V90.7056C178.654 90.9856 178.411 91.2056 178.097 91.3656C177.791 91.519 177.451 91.5956 177.077 91.5956C176.651 91.5956 176.267 91.509 175.927 91.3356C175.587 91.1556 175.317 90.889 175.117 90.5356C174.924 90.1823 174.827 89.7523 174.827 89.2456V86.0356H175.727V89.1256C175.727 89.6656 175.864 90.0823 176.137 90.3756C176.411 90.6623 176.784 90.8056 177.257 90.8056C177.744 90.8056 178.127 90.6556 178.407 90.3556C178.687 90.0556 178.827 89.619 178.827 89.0456V86.0356H179.737ZM182.184 87.0456C182.364 86.7323 182.631 86.4723 182.984 86.2656C183.344 86.0523 183.761 85.9456 184.234 85.9456C184.721 85.9456 185.161 86.0623 185.554 86.2956C185.954 86.529 186.267 86.859 186.494 87.2856C186.721 87.7056 186.834 88.1956 186.834 88.7556C186.834 89.309 186.721 89.8023 186.494 90.2356C186.267 90.669 185.954 91.0056 185.554 91.2456C185.161 91.4856 184.721 91.6056 184.234 91.6056C183.767 91.6056 183.354 91.5023 182.994 91.2956C182.641 91.0823 182.371 90.819 182.184 90.5056V94.1156H181.274V86.0356H182.184V87.0456ZM185.904 88.7556C185.904 88.3423 185.821 87.9823 185.654 87.6756C185.487 87.369 185.261 87.1356 184.974 86.9756C184.694 86.8156 184.384 86.7356 184.044 86.7356C183.711 86.7356 183.401 86.819 183.114 86.9856C182.834 87.1456 182.607 87.3823 182.434 87.6956C182.267 88.0023 182.184 88.359 182.184 88.7656C182.184 89.179 182.267 89.5423 182.434 89.8556C182.607 90.1623 182.834 90.399 183.114 90.5656C183.401 90.7256 183.711 90.8056 184.044 90.8056C184.384 90.8056 184.694 90.7256 184.974 90.5656C185.261 90.399 185.487 90.1623 185.654 89.8556C185.821 89.5423 185.904 89.1756 185.904 88.7556ZM191.808 86.7856V90.0156C191.808 90.2823 191.864 90.4723 191.978 90.5856C192.091 90.6923 192.288 90.7456 192.568 90.7456H193.238V91.5156H192.418C191.911 91.5156 191.531 91.399 191.278 91.1656C191.024 90.9323 190.898 90.549 190.898 90.0156V86.7856H190.188V86.0356H190.898V84.6556H191.808V86.0356H193.238V86.7856H191.808ZM196.73 91.6056C196.217 91.6056 195.75 91.489 195.33 91.2556C194.917 91.0223 194.59 90.6923 194.35 90.2656C194.117 89.8323 194 89.3323 194 88.7656C194 88.2056 194.12 87.7123 194.36 87.2856C194.607 86.8523 194.94 86.5223 195.36 86.2956C195.78 86.0623 196.25 85.9456 196.77 85.9456C197.29 85.9456 197.76 86.0623 198.18 86.2956C198.6 86.5223 198.93 86.849 199.17 87.2756C199.417 87.7023 199.54 88.199 199.54 88.7656C199.54 89.3323 199.414 89.8323 199.16 90.2656C198.914 90.6923 198.577 91.0223 198.15 91.2556C197.724 91.489 197.25 91.6056 196.73 91.6056ZM196.73 90.8056C197.057 90.8056 197.364 90.729 197.65 90.5756C197.937 90.4223 198.167 90.1923 198.34 89.8856C198.52 89.579 198.61 89.2056 198.61 88.7656C198.61 88.3256 198.524 87.9523 198.35 87.6456C198.177 87.339 197.95 87.1123 197.67 86.9656C197.39 86.8123 197.087 86.7356 196.76 86.7356C196.427 86.7356 196.12 86.8123 195.84 86.9656C195.567 87.1123 195.347 87.339 195.18 87.6456C195.014 87.9523 194.93 88.3256 194.93 88.7656C194.93 89.2123 195.01 89.589 195.17 89.8956C195.337 90.2023 195.557 90.4323 195.83 90.5856C196.104 90.7323 196.404 90.8056 196.73 90.8056ZM203.233 86.1056C203.279 85.4923 203.516 85.0123 203.943 84.6656C204.369 84.319 204.923 84.1456 205.603 84.1456C206.056 84.1456 206.446 84.229 206.773 84.3956C207.106 84.5556 207.356 84.7756 207.523 85.0556C207.696 85.3356 207.783 85.6523 207.783 86.0056C207.783 86.419 207.663 86.7756 207.423 87.0756C207.189 87.3756 206.883 87.569 206.503 87.6556V87.7056C206.936 87.8123 207.279 88.0223 207.533 88.3356C207.786 88.649 207.913 89.059 207.913 89.5656C207.913 89.9456 207.826 90.289 207.653 90.5956C207.479 90.8956 207.219 91.1323 206.873 91.3056C206.526 91.479 206.109 91.5656 205.623 91.5656C204.916 91.5656 204.336 91.3823 203.883 91.0156C203.429 90.6423 203.176 90.1156 203.123 89.4356H204.003C204.049 89.8356 204.213 90.1623 204.493 90.4156C204.773 90.669 205.146 90.7956 205.613 90.7956C206.079 90.7956 206.433 90.6756 206.673 90.4356C206.919 90.189 207.043 89.8723 207.043 89.4856C207.043 88.9856 206.876 88.6256 206.543 88.4056C206.209 88.1856 205.706 88.0756 205.033 88.0756H204.803V87.3156H205.043C205.656 87.309 206.119 87.209 206.433 87.0156C206.746 86.8156 206.903 86.509 206.903 86.0956C206.903 85.7423 206.786 85.459 206.553 85.2456C206.326 85.0323 205.999 84.9256 205.573 84.9256C205.159 84.9256 204.826 85.0323 204.573 85.2456C204.319 85.459 204.169 85.7456 204.123 86.1056H203.233ZM212.428 85.1456C212.254 85.1456 212.108 85.0856 211.988 84.9656C211.868 84.8456 211.808 84.699 211.808 84.5256C211.808 84.3523 211.868 84.2056 211.988 84.0856C212.108 83.9656 212.254 83.9056 212.428 83.9056C212.594 83.9056 212.734 83.9656 212.848 84.0856C212.968 84.2056 213.028 84.3523 213.028 84.5256C213.028 84.699 212.968 84.8456 212.848 84.9656C212.734 85.0856 212.594 85.1456 212.428 85.1456ZM212.868 86.0356V91.5156H211.958V86.0356H212.868ZM221.008 85.9356C221.435 85.9356 221.815 86.0256 222.148 86.2056C222.482 86.379 222.745 86.6423 222.938 86.9956C223.132 87.349 223.228 87.779 223.228 88.2856V91.5156H222.328V88.4156C222.328 87.869 222.192 87.4523 221.918 87.1656C221.652 86.8723 221.288 86.7256 220.828 86.7256C220.355 86.7256 219.978 86.879 219.698 87.1856C219.418 87.4856 219.278 87.9223 219.278 88.4956V91.5156H218.378V88.4156C218.378 87.869 218.242 87.4523 217.968 87.1656C217.702 86.8723 217.338 86.7256 216.878 86.7256C216.405 86.7256 216.028 86.879 215.748 87.1856C215.468 87.4856 215.328 87.9223 215.328 88.4956V91.5156H214.418V86.0356H215.328V86.8256C215.508 86.539 215.748 86.319 216.048 86.1656C216.355 86.0123 216.692 85.9356 217.058 85.9356C217.518 85.9356 217.925 86.039 218.278 86.2456C218.632 86.4523 218.895 86.7556 219.068 87.1556C219.222 86.769 219.475 86.469 219.828 86.2556C220.182 86.0423 220.575 85.9356 221.008 85.9356ZM224.381 88.7556C224.381 88.1956 224.495 87.7056 224.721 87.2856C224.948 86.859 225.258 86.529 225.651 86.2956C226.051 86.0623 226.495 85.9456 226.981 85.9456C227.461 85.9456 227.878 86.049 228.231 86.2556C228.585 86.4623 228.848 86.7223 229.021 87.0356V86.0356H229.941V91.5156H229.021V90.4956C228.841 90.8156 228.571 91.0823 228.211 91.2956C227.858 91.5023 227.445 91.6056 226.971 91.6056C226.485 91.6056 226.045 91.4856 225.651 91.2456C225.258 91.0056 224.948 90.669 224.721 90.2356C224.495 89.8023 224.381 89.309 224.381 88.7556ZM229.021 88.7656C229.021 88.3523 228.938 87.9923 228.771 87.6856C228.605 87.379 228.378 87.1456 228.091 86.9856C227.811 86.819 227.501 86.7356 227.161 86.7356C226.821 86.7356 226.511 86.8156 226.231 86.9756C225.951 87.1356 225.728 87.369 225.561 87.6756C225.395 87.9823 225.311 88.3423 225.311 88.7556C225.311 89.1756 225.395 89.5423 225.561 89.8556C225.728 90.1623 225.951 90.399 226.231 90.5656C226.511 90.7256 226.821 90.8056 227.161 90.8056C227.501 90.8056 227.811 90.7256 228.091 90.5656C228.378 90.399 228.605 90.1623 228.771 89.8556C228.938 89.5423 229.021 89.179 229.021 88.7656ZM233.739 85.9456C234.212 85.9456 234.626 86.049 234.979 86.2556C235.339 86.4623 235.606 86.7223 235.779 87.0356V86.0356H236.699V91.6356C236.699 92.1356 236.592 92.579 236.379 92.9656C236.166 93.359 235.859 93.6656 235.459 93.8856C235.066 94.1056 234.606 94.2156 234.079 94.2156C233.359 94.2156 232.759 94.0456 232.279 93.7056C231.799 93.3656 231.516 92.9023 231.429 92.3156H232.329C232.429 92.649 232.636 92.9156 232.949 93.1156C233.262 93.3223 233.639 93.4256 234.079 93.4256C234.579 93.4256 234.986 93.269 235.299 92.9556C235.619 92.6423 235.779 92.2023 235.779 91.6356V90.4856C235.599 90.8056 235.332 91.0723 234.979 91.2856C234.626 91.499 234.212 91.6056 233.739 91.6056C233.252 91.6056 232.809 91.4856 232.409 91.2456C232.016 91.0056 231.706 90.669 231.479 90.2356C231.252 89.8023 231.139 89.309 231.139 88.7556C231.139 88.1956 231.252 87.7056 231.479 87.2856C231.706 86.859 232.016 86.529 232.409 86.2956C232.809 86.0623 233.252 85.9456 233.739 85.9456ZM235.779 88.7656C235.779 88.3523 235.696 87.9923 235.529 87.6856C235.362 87.379 235.136 87.1456 234.849 86.9856C234.569 86.819 234.259 86.7356 233.919 86.7356C233.579 86.7356 233.269 86.8156 232.989 86.9756C232.709 87.1356 232.486 87.369 232.319 87.6756C232.152 87.9823 232.069 88.3423 232.069 88.7556C232.069 89.1756 232.152 89.5423 232.319 89.8556C232.486 90.1623 232.709 90.399 232.989 90.5656C233.269 90.7256 233.579 90.8056 233.919 90.8056C234.259 90.8056 234.569 90.7256 234.849 90.5656C235.136 90.399 235.362 90.1623 235.529 89.8556C235.696 89.5423 235.779 89.179 235.779 88.7656ZM243.237 88.5656C243.237 88.739 243.227 88.9223 243.207 89.1156H238.827C238.86 89.6556 239.043 90.079 239.377 90.3856C239.717 90.6856 240.127 90.8356 240.607 90.8356C241 90.8356 241.327 90.7456 241.587 90.5656C241.853 90.379 242.04 90.1323 242.147 89.8256H243.127C242.98 90.3523 242.687 90.7823 242.247 91.1156C241.807 91.4423 241.26 91.6056 240.607 91.6056C240.087 91.6056 239.62 91.489 239.207 91.2556C238.8 91.0223 238.48 90.6923 238.247 90.2656C238.013 89.8323 237.897 89.3323 237.897 88.7656C237.897 88.199 238.01 87.7023 238.237 87.2756C238.463 86.849 238.78 86.5223 239.187 86.2956C239.6 86.0623 240.073 85.9456 240.607 85.9456C241.127 85.9456 241.587 86.059 241.987 86.2856C242.387 86.5123 242.693 86.8256 242.907 87.2256C243.127 87.619 243.237 88.0656 243.237 88.5656ZM242.297 88.3756C242.297 88.029 242.22 87.7323 242.067 87.4856C241.913 87.2323 241.703 87.0423 241.437 86.9156C241.177 86.7823 240.887 86.7156 240.567 86.7156C240.107 86.7156 239.713 86.8623 239.387 87.1556C239.067 87.449 238.883 87.8556 238.837 88.3756H242.297ZM246.378 91.6056C245.958 91.6056 245.581 91.5356 245.248 91.3956C244.915 91.249 244.651 91.049 244.458 90.7956C244.265 90.5356 244.158 90.239 244.138 89.9056H245.078C245.105 90.179 245.231 90.4023 245.458 90.5756C245.691 90.749 245.995 90.8356 246.368 90.8356C246.715 90.8356 246.988 90.759 247.188 90.6056C247.388 90.4523 247.488 90.259 247.488 90.0256C247.488 89.7856 247.381 89.609 247.168 89.4956C246.955 89.3756 246.625 89.259 246.178 89.1456C245.771 89.039 245.438 88.9323 245.178 88.8256C244.925 88.7123 244.705 88.549 244.518 88.3356C244.338 88.1156 244.248 87.829 244.248 87.4756C244.248 87.1956 244.331 86.939 244.498 86.7056C244.665 86.4723 244.901 86.289 245.208 86.1556C245.515 86.0156 245.865 85.9456 246.258 85.9456C246.865 85.9456 247.355 86.099 247.728 86.4056C248.101 86.7123 248.301 87.1323 248.328 87.6656H247.418C247.398 87.379 247.281 87.149 247.068 86.9756C246.861 86.8023 246.581 86.7156 246.228 86.7156C245.901 86.7156 245.641 86.7856 245.448 86.9256C245.255 87.0656 245.158 87.249 245.158 87.4756C245.158 87.6556 245.215 87.8056 245.328 87.9256C245.448 88.039 245.595 88.1323 245.768 88.2056C245.948 88.2723 246.195 88.349 246.508 88.4356C246.901 88.5423 247.221 88.649 247.468 88.7556C247.715 88.8556 247.925 89.009 248.098 89.2156C248.278 89.4223 248.371 89.6923 248.378 90.0256C248.378 90.3256 248.295 90.5956 248.128 90.8356C247.961 91.0756 247.725 91.2656 247.418 91.4056C247.118 91.539 246.771 91.6056 246.378 91.6056Z" fill="#D1D1D1"/>
<path fill-rule="evenodd" clip-rule="evenodd" d="M208.897 45.9209C207.607 45.9209 206.532 44.9109 206.419 43.5943C206.184 40.8417 206.124 38.0768 206.241 35.3174C206.1 35.3077 205.96 35.2977 205.819 35.2872L203.336 35.1017C201.75 34.9831 200.863 33.1696 201.719 31.7954C203.546 28.8648 206.895 25.5847 209.651 23.5556C210.457 22.9619 211.543 22.9619 212.35 23.5556C215.105 25.5847 218.454 28.8648 220.281 31.7954C221.138 33.1696 220.251 34.9831 218.664 35.1017L216.181 35.2872C216.041 35.2977 215.9 35.3077 215.76 35.3174C215.876 38.0768 215.817 40.8417 215.581 43.5944C215.469 44.9109 214.393 45.9209 213.104 45.9209H208.897ZM208.803 34.1936C208.613 37.2468 208.649 40.3104 208.909 43.3584H213.092C213.352 40.3104 213.387 37.2468 213.198 34.1936C213.176 33.8513 213.29 33.5146 213.513 33.2588C213.736 33.003 214.05 32.8495 214.384 32.8326C214.923 32.8054 215.461 32.7717 216 32.7314L217.803 32.5967C216.203 30.1823 214.201 28.0738 211.886 26.3692L211 25.7172L210.115 26.3692C207.8 28.0738 205.797 30.1823 204.198 32.5967L206.001 32.7314C206.539 32.7717 207.078 32.8054 207.617 32.8326C207.951 32.8495 208.265 33.003 208.487 33.2588C208.71 33.5146 208.824 33.8513 208.803 34.1936Z" fill="#D0D0D0"/>
<path d="M200.583 46.5577C200.583 45.85 200.024 45.2764 199.333 45.2764C198.643 45.2764 198.083 45.85 198.083 46.5577V49.9743C198.083 51.6254 199.389 52.9639 201 52.9639H221C222.611 52.9639 223.917 51.6254 223.917 49.9743V46.5577C223.917 45.85 223.357 45.2764 222.667 45.2764C221.976 45.2764 221.417 45.85 221.417 46.5577V49.9743C221.417 50.2102 221.23 50.4014 221 50.4014H201C200.77 50.4014 200.583 50.2102 200.583 49.9743V46.5577Z" fill="#D0D0D0"/>
</svg>
